<svg width="337" height="83" viewBox="0 0 337 83" fill="none" xmlns="http://www.w3.org/2000/svg">
<path d="M0 56.2246H337V82.7761H0V56.2246Z" fill="#3375CC"/>
<path d="M11.8718 75.9716H16.0253L20.8612 63.5111H17.7906L14.1414 73.168H13.7557L10.1066 63.5111H7.05078L11.8718 75.9716Z" fill="white"/>
<path d="M29.0978 75.9716H39.5854V73.5388H32.0498V70.7945H39.3184V68.6584H32.0498V65.929H39.5854V63.5111H29.0978V75.9716Z" fill="white"/>
<path d="M60.2397 75.9716L57.8069 71.6697C59.0826 70.9726 59.9281 69.7117 59.9281 67.9761C59.9281 65.0686 58.1629 63.5111 54.8253 63.5111H48.2835V75.9716H51.2354V72.2631H55.2554L57.3025 75.9716H60.2397ZM51.2354 65.9883H54.6621C56.1603 65.9883 56.991 66.6707 56.991 67.9909C56.991 69.3111 56.1603 69.9935 54.6621 69.9935H51.2354V65.9883Z" fill="white"/>
<path d="M68.6512 75.9716H71.6032V63.5111H68.6512V75.9716Z" fill="white"/>
<path d="M80.2924 75.9716H83.2444V71.1654H90.3499V68.9255H83.2444V65.9883H90.7652V63.5111H80.2924V75.9716Z" fill="white"/>
<path d="M99.4433 75.9716H102.395V63.5111H99.4433V75.9716Z" fill="white"/>
<path d="M111.085 75.9716H121.572V73.5388H114.036V70.7945H121.305V68.6584H114.036V65.929H121.572V63.5111H111.085V75.9716Z" fill="white"/>
<path d="M135.996 63.5111H130.27V75.9716H135.996C140.832 75.9716 142.671 73.2867 142.671 69.7413C142.671 66.196 140.832 63.5111 135.996 63.5111ZM135.981 73.4795H133.222L133.252 66.0032H135.981C138.399 66.0032 139.705 67.3382 139.705 69.7413C139.705 72.1444 138.399 73.4795 135.981 73.4795Z" fill="white"/>
<path d="M172.661 75.9716H175.732L170.896 63.5111H166.742L161.921 75.9716H164.977L165.748 73.88H171.89L172.661 75.9716ZM166.579 71.6401L168.537 66.3147H169.101L171.059 71.6401H166.579Z" fill="white"/>
<path d="M189.124 76.387C192.966 76.387 195.132 74.5772 195.132 70.7797V63.5111H192.165V70.7055C192.165 72.6933 191.156 73.8948 189.124 73.8948C187.092 73.8948 186.098 72.6933 186.098 70.7055V63.5111H183.116V70.7797C183.116 74.5772 185.282 76.387 189.124 76.387Z" fill="white"/>
<path d="M216.038 63.5111H203.74V65.9883H208.398V75.9716H211.365V65.9883H216.038V63.5111Z" fill="white"/>
<path d="M233.772 63.5111V68.5101H227.586V63.5111H224.634V75.9716H227.586V70.9726H233.772V75.9716H236.739V63.5111H233.772Z" fill="white"/>
<path d="M245.419 75.9716H255.907V73.5388H248.371V70.7945H255.64V68.6584H248.371V65.929H255.907V63.5111H245.419V75.9716Z" fill="white"/>
<path d="M264.605 75.9716H267.497V67.5904H267.764L273.624 75.9716H276.991V63.5111H274.098V71.8923H273.817L268.031 63.5111H264.605V75.9716Z" fill="white"/>
<path d="M297.891 63.5111H285.594V65.9883H290.251V75.9716H293.218V65.9883H297.891V63.5111Z" fill="white"/>
<path d="M306.488 75.9716H309.439V63.5111H306.488V75.9716Z" fill="white"/>
<path d="M324.73 76.387C327.489 76.387 330.263 75.1706 330.871 71.4917H328.038C327.504 73.1086 326.273 73.8207 324.73 73.8207C322.52 73.8207 320.829 72.1296 320.829 69.7413C320.829 67.3382 322.52 65.662 324.73 65.662C326.273 65.662 327.504 66.374 328.038 67.9761H330.871C330.263 64.3121 327.459 63.0957 324.73 63.0957C320.695 63.0957 317.906 65.8252 317.906 69.7413C317.906 73.6575 320.695 76.387 324.73 76.387Z" fill="white"/>
<path d="M40.5506 40.6871L33.5832 27.7497C36.8811 25.406 39.25 21.6561 39.25 16.3592C39.25 5.99995 33.1651 1.31249 22.3423 1.31249H0V40.6871H12.8666V30.5153H22.621L27.9163 40.6871H40.5506ZM12.8666 12.0936H21.4598C24.7113 12.0936 26.3834 13.6874 26.3834 16.453C26.3834 19.2186 24.7113 20.8123 21.4598 20.8123H12.8666V12.0936Z" fill="#181818"/>
<path d="M43.4595 40.6871H78.622V30.281H56.3261V25.2654H77.7859V16.7342H56.3261V11.7186H78.622V1.31249H43.4595V40.6871Z" fill="#181818"/>
<path d="M100.818 41.9996C114.195 42.0465 120.791 37.7809 120.791 29.2029C120.791 18.4217 110.154 18.1873 102.397 16.8748L98.2629 16.1717C95.2902 15.703 94.5934 14.3436 94.5934 13.2186C94.5934 11.4374 96.3585 10.1249 100.632 10.1249C105.556 10.1249 107.739 11.7655 108.203 14.3905H119.676C119.909 3.1406 112.105 0 100.911 0C88.5085 0 82.2378 4.78121 82.2378 12.5624C82.2378 22.6404 91.1097 23.531 98.4952 24.7498L103.512 25.5466C107.321 26.1091 108.017 27.4216 108.017 28.6872C108.017 30.5154 105.741 31.9216 100.818 31.8747C95.2437 31.8278 93.0141 30.1872 92.8748 27.5154H81.3088C80.9836 37.734 87.3473 41.9527 100.818 41.9996Z" fill="#181818"/>
<path d="M162.849 1.31249H121.927V12.1405H135.955V40.6871H148.821V12.1405H162.849V1.31249Z" fill="#181818"/>
<path d="M232.32 41.9996C241.935 41.9996 251.596 37.7809 252.897 24.3748H240.634C239.566 28.781 236.547 30.7966 232.32 30.7966C227.21 30.7966 223.169 26.9529 223.169 20.9998C223.169 15.0467 227.21 11.203 232.32 11.203C236.547 11.203 239.566 13.2186 240.634 17.5311H252.897C251.596 4.21871 241.842 0 232.32 0C219.174 0 210.395 8.39055 210.395 20.9998C210.395 33.6091 219.174 41.9996 232.32 41.9996Z" fill="#181818"/>
<path d="M298.352 40.6871L282.001 18.8436L297.841 1.31249H283.534L269.46 16.9217H268.624V1.31249H255.804V40.6871H268.624V32.4372L273.966 26.6716H274.802L285.206 40.6871H298.352Z" fill="#181818"/>
<path d="M317.027 41.9996C330.404 42.0465 337 37.7809 337 29.2029C337 18.4217 326.363 18.1873 318.606 16.8748L314.472 16.1717C311.499 15.703 310.802 14.3436 310.802 13.2186C310.802 11.4374 312.567 10.1249 316.841 10.1249C321.764 10.1249 323.948 11.7655 324.412 14.3905H335.885C336.117 3.1406 328.314 0 317.12 0C304.717 0 298.447 4.78121 298.447 12.5624C298.447 22.6404 307.319 23.531 314.704 24.7498L319.721 25.5466C323.53 26.1091 324.226 27.4216 324.226 28.6872C324.226 30.5154 321.95 31.9216 317.027 31.8747C311.453 31.8278 309.223 30.1872 309.084 27.5154H297.518C297.193 37.734 303.556 41.9527 317.027 41.9996Z" fill="#181818"/>
<path d="M207.672 20.9998C207.672 33.6091 198.986 41.9996 185.562 41.9996C172.138 41.9996 163.452 33.6091 163.452 20.9998C163.452 8.39055 172.138 0 185.562 0C189.009 0 192.143 0.55316 194.899 1.58886L189.832 12.1405C188.548 11.5235 187.095 11.203 185.562 11.203C180.453 11.203 176.226 14.7655 176.226 20.9998C176.226 27.2341 180.453 30.7966 185.562 30.7966C190.672 30.7966 194.899 27.2341 194.899 20.9998C194.899 19.7113 194.718 18.537 194.387 17.4846L204.263 8.88352C204.263 8.88352 207.672 14.3205 207.672 20.9998Z" fill="#181818"/>
</svg>
