<svg width="337" height="42" viewBox="0 0 337 42" fill="none" xmlns="http://www.w3.org/2000/svg">
<path d="M40.5506 40.6871L33.5832 27.7497C36.8811 25.406 39.25 21.6561 39.25 16.3592C39.25 5.99995 33.1651 1.31249 22.3423 1.31249H0V40.6871H12.8666V30.5153H22.621L27.9163 40.6871H40.5506ZM12.8666 12.0936H21.4598C24.7113 12.0936 26.3834 13.6874 26.3834 16.453C26.3834 19.2186 24.7113 20.8123 21.4598 20.8123H12.8666V12.0936Z" fill="#181818"/>
<path d="M43.4595 40.6871H78.622V30.281H56.3261V25.2654H77.7859V16.7342H56.3261V11.7186H78.622V1.31249H43.4595V40.6871Z" fill="#181818"/>
<path d="M100.818 41.9996C114.195 42.0465 120.791 37.7809 120.791 29.2029C120.791 18.4217 110.154 18.1873 102.397 16.8748L98.2629 16.1717C95.2902 15.703 94.5934 14.3436 94.5934 13.2186C94.5934 11.4374 96.3585 10.1249 100.632 10.1249C105.556 10.1249 107.739 11.7655 108.203 14.3905H119.676C119.909 3.1406 112.105 0 100.911 0C88.5085 0 82.2378 4.78121 82.2378 12.5624C82.2378 22.6404 91.1097 23.531 98.4952 24.7498L103.512 25.5466C107.321 26.1091 108.017 27.4216 108.017 28.6872C108.017 30.5154 105.741 31.9216 100.818 31.8747C95.2437 31.8278 93.0141 30.1872 92.8748 27.5154H81.3088C80.9836 37.734 87.3473 41.9527 100.818 41.9996Z" fill="#181818"/>
<path d="M162.849 1.31249H121.927V12.1405H135.955V40.6871H148.821V12.1405H162.849V1.31249Z" fill="#181818"/>
<path d="M232.32 41.9996C241.935 41.9996 251.596 37.7809 252.897 24.3748H240.634C239.566 28.781 236.547 30.7966 232.32 30.7966C227.21 30.7966 223.169 26.9529 223.169 20.9998C223.169 15.0467 227.21 11.203 232.32 11.203C236.547 11.203 239.566 13.2186 240.634 17.5311H252.897C251.596 4.21871 241.842 0 232.32 0C219.174 0 210.395 8.39055 210.395 20.9998C210.395 33.6091 219.174 41.9996 232.32 41.9996Z" fill="#181818"/>
<path d="M298.352 40.6871L282.001 18.8436L297.841 1.31249H283.534L269.46 16.9217H268.624V1.31249H255.804V40.6871H268.624V32.4372L273.966 26.6716H274.802L285.206 40.6871H298.352Z" fill="#181818"/>
<path d="M317.027 41.9996C330.404 42.0465 337 37.7809 337 29.2029C337 18.4217 326.363 18.1873 318.606 16.8748L314.472 16.1717C311.499 15.703 310.802 14.3436 310.802 13.2186C310.802 11.4374 312.567 10.1249 316.841 10.1249C321.764 10.1249 323.948 11.7655 324.412 14.3905H335.885C336.117 3.1406 328.314 0 317.12 0C304.717 0 298.447 4.78121 298.447 12.5624C298.447 22.6404 307.319 23.531 314.704 24.7498L319.721 25.5466C323.53 26.1091 324.226 27.4216 324.226 28.6872C324.226 30.5154 321.95 31.9216 317.027 31.8747C311.453 31.8278 309.223 30.1872 309.084 27.5154H297.518C297.193 37.734 303.556 41.9527 317.027 41.9996Z" fill="#181818"/>
<path d="M207.672 20.9998C207.672 33.6091 198.986 41.9996 185.562 41.9996C172.138 41.9996 163.452 33.6091 163.452 20.9998C163.452 8.39055 172.138 0 185.562 0C189.009 0 192.143 0.55316 194.899 1.58886L189.832 12.1405C188.548 11.5235 187.095 11.203 185.562 11.203C180.453 11.203 176.226 14.7655 176.226 20.9998C176.226 27.2341 180.453 30.7966 185.562 30.7966C190.672 30.7966 194.899 27.2341 194.899 20.9998C194.899 19.7113 194.718 18.537 194.387 17.4846L204.263 8.88352C204.263 8.88352 207.672 14.3205 207.672 20.9998Z" fill="#181818"/>
</svg>
